<svg width="278" height="206" viewBox="0 0 278 206" fill="none" xmlns="http://www.w3.org/2000/svg">
<path d="M86.1582 166.837L28.3802 109.547C26.8693 108.03 25.0699 106.826 23.0863 106.005C21.1027 105.183 18.9744 104.76 16.8246 104.76C14.6748 104.76 12.5465 105.183 10.5629 106.005C8.57924 106.826 6.77986 108.03 5.269 109.547C3.7397 111.045 2.52551 112.829 1.69682 114.796C0.868122 116.763 0.441406 118.873 0.441406 121.005C0.441406 123.136 0.868122 125.247 1.69682 127.214C2.52551 129.181 3.7397 130.965 5.269 132.463L74.4375 201.048C80.8756 207.432 91.2757 207.432 97.7138 201.048L272.699 27.7031C274.228 26.205 275.442 24.4208 276.271 22.4539C277.099 20.487 277.526 18.3766 277.526 16.245C277.526 14.1134 277.099 12.0029 276.271 10.0361C275.442 8.06919 274.228 6.28498 272.699 4.78686C271.188 3.27047 269.388 2.06652 267.405 1.24482C265.421 0.423112 263.293 0 261.143 0C258.993 0 256.865 0.423112 254.881 1.24482C252.898 2.06652 251.098 3.27047 249.587 4.78686L86.1582 166.837Z" fill="#FFA7CD"/>
</svg>
